<svg width="81" height="81" viewBox="0 0 81 81" fill="none" xmlns="http://www.w3.org/2000/svg">
<rect width="81" height="81" rx="12" fill="#474E5A"/>
<path fill-rule="evenodd" clip-rule="evenodd" d="M36.8463 57.5079C38.0573 57.9226 39.3602 58.1453 40.7173 58.1453C47.1851 58.1453 52.2576 52.9345 52.2576 46.604C52.2576 44.444 51.7074 42.4133 50.6146 40.6267C48.988 37.9672 45.9252 34.5087 44.1415 31.0243C48.3677 44.7704 35.4792 47.5266 36.8463 57.5079Z" fill="#F6F54D"/>
<path fill-rule="evenodd" clip-rule="evenodd" d="M40.7489 23.3382C36.7794 34.1168 33.2395 36.6314 31.1641 40.1356C29.9189 42.2386 29.1904 43.9281 29.1904 46.2769C29.1904 52.1466 32.8243 55.998 36.7125 57.4105C34.3293 54.0568 34.4931 49.9407 35.7529 47.0805C38.9277 39.8728 46.1015 37.9092 43.9141 30.7909C43.6873 30.0533 43.1902 29.1336 42.9055 28.5223C42.1182 26.8322 41.4846 25.3539 40.7489 23.3382Z" fill="#009BDA"/>
</svg>
