<svg width="180" height="180" viewBox="0 0 180 180" fill="none" xmlns="http://www.w3.org/2000/svg">
<rect width="180" height="180" fill="#CADBEE"/>
<path fill-rule="evenodd" clip-rule="evenodd" d="M90.1897 22.6426C74.7342 64.5869 60.9515 74.3721 52.8707 88.0085C48.0223 96.1924 45.186 102.767 45.186 111.907C45.186 134.749 59.3349 149.736 74.4738 155.233C65.1947 142.182 65.8323 126.164 70.7375 115.034C83.0988 86.986 111.031 79.3448 102.514 51.6442C101.631 48.7739 99.6954 45.195 98.587 42.8162C95.5214 36.2392 93.0543 30.4867 90.1897 22.6426Z" fill="#009BDA"/>
<path fill-rule="evenodd" clip-rule="evenodd" d="M74.9947 155.612C79.7099 157.225 84.7827 158.092 90.067 158.092C115.25 158.092 135 137.814 135 113.18C135 104.774 132.858 96.872 128.603 89.9195C122.269 79.5705 110.344 66.1119 103.399 52.5524C119.854 106.045 69.672 116.77 74.9947 155.612Z" fill="#F6F54D"/>
</svg>
