<svg width="332" height="500" viewBox="0 0 332 500" fill="none" xmlns="http://www.w3.org/2000/svg">
<path fill-rule="evenodd" clip-rule="evenodd" d="M166.264 0C109.274 154.663 58.452 190.745 28.6554 241.027C10.7774 271.204 0.31897 295.446 0.31897 329.15C0.31897 413.374 52.4911 468.638 108.314 488.906C74.0983 440.784 76.4492 381.721 94.5364 340.681C140.117 237.257 243.111 209.081 211.707 106.939C208.451 96.3551 201.314 83.1586 197.227 74.3871C185.923 50.1354 176.826 28.924 166.264 0Z" fill="#009BDA"/>
<path fill-rule="evenodd" clip-rule="evenodd" d="M110.234 490.303C127.621 496.254 146.326 499.449 165.811 499.449C258.669 499.449 331.495 424.679 331.495 333.844C331.495 302.849 323.595 273.71 307.907 248.074C284.553 209.913 240.58 160.286 214.971 110.288C275.648 307.533 90.6075 347.081 110.234 490.303Z" fill="#F6F54D"/>
</svg>
